<?xml version="1.0" encoding="utf-8"?>
<!-- Generator: Adobe Illustrator 21.1.0, SVG Export Plug-In . SVG Version: 6.00 Build 0)  -->
<svg version="1.1" id="Layer_1" xmlns="http://www.w3.org/2000/svg" xmlns:xlink="http://www.w3.org/1999/xlink" x="0px" y="0px"
	 viewBox="0 0 127 88" style="enable-background:new 0 0 127 88;" xml:space="preserve">
<style type="text/css">
	.st0{fill:#590606;}
	.st1{fill:#FFFFFF;}
	.st2{fill:#F9B300;stroke:#F9B300;stroke-width:0.4096;stroke-miterlimit:10;}
	.st3{fill:#F9B300;}
	.st4{opacity:0.9;fill:#FFFFFF;enable-background:new    ;}
</style>
<g>
	<g id="XMLID_241_">
		<path id="XMLID_248_" class="st0" d="M15.3,33.3c2.1,0,3,1.5,3.4,2.4v-7c0,0-1.2-1.7-2-3c-0.7-1.3-2-2.3-4.9-2.3
			c-6.6,0-10.6,7.8-10.6,19.4c0,5.4,0.8,9.8,2.3,13.1c0.6,1.4,1.5,3.1,2.8,4.7c2.1,2.5,4.3,4.1,7.4,4.1c2.9,0,4.3-1.1,4.9-2.3v-8
			l-2-2.4c-0.4,1.2-1.4,2.6-3.4,2.6c-0.5,0-1-0.1-1.4-0.3c-0.8-2-1.1-5.2-1.1-9.2C10.8,37.8,11.9,33.3,15.3,33.3z"/>
		<polygon id="XMLID_247_" class="st0" points="105.2,34.8 105.2,61.7 107.2,64.1 114.5,64.1 114.5,34.8 119.6,34.8 119.6,28.5 
			117.7,26.3 100.1,26.3 100.1,32.5 102,34.8 		"/>
		<polygon id="XMLID_246_" class="st0" points="98.8,23.5 91.5,23.5 91.5,61.7 93.5,64.1 100.8,64.1 100.8,25.8 		"/>
		<polygon id="XMLID_245_" class="st0" points="87.1,28.5 85.1,26.3 69.5,26.3 69.5,32.5 71.5,34.8 75.2,34.8 68.7,61.7 70.7,64.1 
			87.2,64.1 87.2,57.8 85.2,55.4 80.7,55.4 		"/>
		<polygon id="XMLID_244_" class="st0" points="55.5,64.1 69.5,64.1 70.9,57.8 69,55.4 62.9,55.4 62.9,49.1 68.8,49.1 68.8,42.8 
			66.9,40.5 62.9,40.5 62.9,34.8 70.3,34.8 70.3,28.5 68.3,26.3 53.6,26.3 53.6,61.7 		"/>
		<polygon id="XMLID_243_" class="st0" points="46.9,55.4 46.9,49.1 52.8,49.1 52.8,42.8 50.9,40.5 46.9,40.5 46.9,34.8 54.3,34.8 
			54.3,28.5 52.3,26.3 37.6,26.3 37.6,61.7 39.6,64.1 54.3,64.1 54.3,57.8 52.3,55.4 		"/>
		<polygon id="XMLID_242_" class="st0" points="29,61.7 31,64.1 38.3,64.1 38.3,28.5 36.4,26.3 29,26.3 29,40.5 27.2,40.5 
			27.2,28.5 25.3,26.3 17.9,26.3 17.9,61.7 19.9,64.1 27.2,64.1 27.2,49.1 29,49.1 		"/>
	</g>
	<g id="XMLID_209_">
		<path id="XMLID_240_" class="st1" d="M16.7,52.1c-0.4,1.2-1.4,2.6-3.4,2.6c-3.5,0-4.5-4.4-4.5-11.8S9.9,31,13.3,31
			c2.1,0,3,1.5,3.4,2.4v-7.7c-0.6-1.3-2-2.3-4.9-2.3c-6.6,0-10.6,7.8-10.6,19.4c0,12.4,4.4,19.4,10.6,19.4c2.9,0,4.3-1.1,4.9-2.3
			V52.1z"/>
		<rect id="XMLID_239_" x="91.5" y="23.5" class="st1" width="7.3" height="38.3"/>
		<polygon id="XMLID_238_" class="st1" points="29,26.3 29,40.5 25.3,40.5 25.3,26.3 17.9,26.3 17.9,61.7 25.3,61.7 25.3,46.7 
			29,46.7 29,61.7 36.4,61.7 36.4,26.3 		"/>
		<polygon id="XMLID_237_" class="st1" points="52.3,61.7 52.3,55.4 44.9,55.4 44.9,46.7 50.9,46.7 50.9,40.5 44.9,40.5 44.9,32.5 
			52.3,32.5 52.3,26.3 37.6,26.3 37.6,61.7 		"/>
		<polygon id="XMLID_236_" class="st1" points="100.1,26.3 100.1,32.5 105.2,32.5 105.2,61.7 112.5,61.7 112.5,32.5 117.7,32.5 
			117.7,26.3 		"/>
		<polygon id="XMLID_235_" class="st1" points="85.2,61.7 85.2,55.4 78.1,55.4 85.1,26.3 69.5,26.3 69.5,32.5 75.7,32.5 68.7,61.7 
					"/>
		<polygon id="XMLID_234_" class="st1" points="69,55.4 60.9,55.4 60.9,46.7 66.9,46.7 66.9,40.5 60.9,40.5 60.9,32.5 68.3,32.5 
			68.3,26.3 53.6,26.3 53.6,61.7 67.5,61.7 		"/>
	</g>
	<g id="XMLID_178_">
		<path id="XMLID_186_" class="st0" d="M94.8,47.6l-0.3-1.2c0-0.2-0.2-0.3-0.4-0.3c0.2,0,0.3-0.2,0.3-0.4l-0.1-0.3
			c0-0.2-0.2-0.3-0.4-0.3c0.2,0,0.3-0.2,0.3-0.4l-0.1-0.3c0-0.2-0.2-0.3-0.4-0.3c0.2,0,0.3-0.2,0.3-0.4l-0.2-0.3
			c0-0.2-0.2-0.3-0.4-0.3c0.2,0,0.3-0.2,0.3-0.4l-0.1-0.3c0-0.2-0.2-0.3-0.4-0.3c0.2,0,0.3-0.2,0.3-0.4l-0.1-0.3
			c0-0.2-0.2-0.3-0.4-0.3c0.2,0,0.3-0.2,0.3-0.4L93,39.5c0-0.1-0.1-0.1-0.1-0.1l-1.6-0.8l-0.4-0.2c0,0-0.1,0-0.2,0l-2.2,0.5
			c-0.2,0-0.3,0.2-0.3,0.4c0-0.2-0.2-0.3-0.4-0.3L87.5,39c-0.2,0-0.3,0.2-0.3,0.4c0-0.2-0.2-0.3-0.4-0.3l-0.3,0.1
			c-0.2,0-0.3,0.2-0.3,0.4c0-0.2-0.2-0.3-0.4-0.3l-0.3,0.1c-0.2,0-0.3,0.2-0.3,0.4c0-0.2-0.2-0.3-0.4-0.3l-2.2,0.5
			c-0.1,0-0.2,0.1-0.2,0.3l0.3,1.2c0.1,0.2,0.2,0.3,0.4,0.2c-0.2,0-0.3,0.2-0.3,0.4l0.1,0.4c0.1,0.2,0.2,0.3,0.4,0.2
			c-0.2,0-0.3,0.2-0.3,0.4l0.1,0.4c0.1,0.2,0.2,0.3,0.4,0.2c-0.2,0-0.3,0.2-0.3,0.4l0.1,0.4c0.1,0.2,0.2,0.3,0.4,0.2
			c-0.2,0-0.3,0.2-0.3,0.4l0.1,0.4c0.1,0.2,0.2,0.3,0.4,0.2c-0.2,0-0.3,0.2-0.3,0.4l0.1,0.4c0.1,0.2,0.2,0.3,0.4,0.2
			c-0.2,0-0.3,0.2-0.3,0.4l0.3,1.2c0,0,0,0.1,0.1,0.1l0,0l1.6,0.9l0.4,0.2h0.1l2.2-0.5c0.2,0,0.3-0.2,0.3-0.4c0,0.2,0.2,0.3,0.4,0.3
			l0.4-0.1c0.2,0,0.3-0.2,0.3-0.4c0,0.2,0.2,0.3,0.4,0.3l0.4-0.1c0.2-0.1,0.3-0.2,0.3-0.4c0,0.2,0.2,0.3,0.4,0.3l0.4-0.1
			c0.2,0,0.3-0.2,0.3-0.4c0,0.2,0.2,0.3,0.4,0.3l2.2-0.5C94.8,47.8,94.9,47.8,94.8,47.6z"/>
		<path id="XMLID_182_" class="st2" d="M92.2,45.2c0.2,0,0.3-0.2,0.3-0.4l-0.2-0.4c0-0.2-0.2-0.3-0.4-0.3c0.2,0,0.3-0.2,0.3-0.4
			l-0.1-0.3c0-0.2-0.2-0.3-0.4-0.3c0.2,0,0.3-0.2,0.3-0.4l-0.1-0.3c0-0.2-0.2-0.3-0.4-0.3c0.2,0,0.3-0.2,0.3-0.4l-0.1-0.3
			c0-0.2-0.2-0.3-0.4-0.3c0.2,0,0.3-0.2,0.3-0.4l-0.1-0.3c0-0.2-0.2-0.3-0.4-0.3c0.2,0,0.3-0.2,0.3-0.4l-0.5-1.3
			c0-0.1-0.1-0.2-0.3-0.2l-2.2,0.5c-0.2,0-0.3,0.2-0.3,0.4c0-0.2-0.2-0.3-0.4-0.3l-0.3,0.1c-0.2,0-0.3,0.2-0.3,0.4
			c0-0.2-0.2-0.3-0.4-0.3L86.4,39c-0.2,0-0.3,0.2-0.3,0.4c0-0.2-0.2-0.3-0.4-0.3l-0.3,0.1c-0.2,0-0.3,0.2-0.3,0.4
			c0-0.2-0.2-0.3-0.4-0.3l-2.2,0.5c-0.1,0-0.2,0.1-0.2,0.3l0.3,1.2c0.1,0.2,0.2,0.3,0.4,0.2c-0.2,0-0.3,0.2-0.3,0.4l0.1,0.4
			c0.1,0.2,0.2,0.3,0.4,0.2c-0.2,0-0.3,0.2-0.3,0.4l0.1,0.4c0.1,0.2,0.2,0.3,0.4,0.2c-0.2,0-0.3,0.2-0.3,0.4l0.1,0.4
			c0.1,0.2,0.2,0.3,0.4,0.2c-0.2,0-0.3,0.2-0.3,0.4l0.1,0.4c0.1,0.2,0.2,0.3,0.4,0.2c-0.2,0-0.3,0.2-0.3,0.4l0.1,0.4
			c0.1,0.2,0.2,0.3,0.4,0.2c-0.2,0-0.3,0.2-0.3,0.4l0.3,1.2c0,0.1,0.1,0.2,0.3,0.2l2.2-0.5c0.2,0,0.3-0.2,0.3-0.4
			c0,0.2,0.2,0.3,0.4,0.3l0.4-0.1c0.2-0.1,0.3-0.2,0.3-0.4c0,0.2,0.2,0.3,0.4,0.3l0.4-0.1c0.2,0,0.3-0.2,0.3-0.4
			c0,0.2,0.2,0.3,0.4,0.3l0.4-0.1c0.2,0,0.3-0.2,0.3-0.4c0,0.2,0.2,0.3,0.4,0.3l2.2-0.5c0.1,0,0.2-0.1,0.2-0.3l-0.3-1
			C92.5,45.2,92.4,45.1,92.2,45.2z M87.9,44.7c-0.7,0.2-1.3-0.2-1.5-0.9c-0.2-0.7,0.3-1.3,0.9-1.5c0.7-0.2,1.3,0.3,1.5,0.9
			C89,43.8,88.6,44.6,87.9,44.7z"/>
		<path id="XMLID_179_" class="st3" d="M92.2,45.2c0.2,0,0.3-0.2,0.3-0.4l-0.2-0.4c0-0.2-0.2-0.3-0.4-0.3c0.2,0,0.3-0.2,0.3-0.4
			l-0.1-0.3c0-0.2-0.2-0.3-0.4-0.3c0.2,0,0.3-0.2,0.3-0.4l-0.1-0.3c0-0.2-0.2-0.3-0.4-0.3c0.2,0,0.3-0.2,0.3-0.4l-0.1-0.3
			c0-0.2-0.2-0.3-0.4-0.3c0.2,0,0.3-0.2,0.3-0.4l-0.1-0.3c0-0.2-0.2-0.3-0.4-0.3c0.2,0,0.3-0.2,0.3-0.4l-0.5-1.3
			c0-0.1-0.1-0.2-0.3-0.2l-2.2,0.5c-0.2,0-0.3,0.2-0.3,0.4c0-0.2-0.2-0.3-0.4-0.3l-0.3,0.1c-0.2,0-0.3,0.2-0.3,0.4
			c0-0.2-0.2-0.3-0.4-0.3L86.4,39c-0.2,0-0.3,0.2-0.3,0.4c0-0.2-0.2-0.3-0.4-0.3l-0.3,0.1c-0.2,0-0.3,0.2-0.3,0.4
			c0-0.2-0.2-0.3-0.4-0.3l-2.2,0.5c-0.1,0-0.2,0.1-0.2,0.3l0.3,1.2c0.1,0.2,0.2,0.3,0.4,0.2c-0.2,0-0.3,0.2-0.3,0.4l0.1,0.4
			c0.1,0.2,0.2,0.3,0.4,0.2c-0.2,0-0.3,0.2-0.3,0.4l0.1,0.4c0.1,0.2,0.2,0.3,0.4,0.2c-0.2,0-0.3,0.2-0.3,0.4l0.1,0.4
			c0.1,0.2,0.2,0.3,0.4,0.2c-0.2,0-0.3,0.2-0.3,0.4l0.1,0.4c0.1,0.2,0.2,0.3,0.4,0.2c-0.2,0-0.3,0.2-0.3,0.4l0.1,0.4
			c0.1,0.2,0.2,0.3,0.4,0.2c-0.2,0-0.3,0.2-0.3,0.4l0.3,1.2c0,0.1,0.1,0.2,0.3,0.2l2.2-0.5c0.2,0,0.3-0.2,0.3-0.4
			c0,0.2,0.2,0.3,0.4,0.3l0.4-0.1c0.2-0.1,0.3-0.2,0.3-0.4c0,0.2,0.2,0.3,0.4,0.3l0.4-0.1c0.2,0,0.3-0.2,0.3-0.4
			c0,0.2,0.2,0.3,0.4,0.3l0.4-0.1c0.2,0,0.3-0.2,0.3-0.4c0,0.2,0.2,0.3,0.4,0.3l2.2-0.5c0.1,0,0.2-0.1,0.2-0.3l-0.3-1
			C92.5,45.2,92.4,45.1,92.2,45.2z M87.9,44.7c-0.7,0.2-1.3-0.2-1.5-0.9c-0.2-0.7,0.3-1.3,0.9-1.5c0.7-0.2,1.3,0.3,1.5,0.9
			C89,43.8,88.6,44.6,87.9,44.7z"/>
	</g>
	<g>
		<path class="st4" d="M126.1,27c0,1.7-1.4,3.1-3.1,3.1s-3.1-1.4-3.1-3.1c0-1.7,1.4-3,3.1-3C124.8,24,126.1,25.4,126.1,27z
			 M120.7,27c0,1.4,1,2.4,2.4,2.4c1.3,0,2.3-1.1,2.3-2.4c0-1.4-1-2.5-2.3-2.5S120.7,25.6,120.7,27z M122.5,28.5h-0.7v-3
			c0.3-0.1,0.7-0.1,1.2-0.1c0.6,0,0.8,0.1,1.1,0.2c0.2,0.1,0.3,0.4,0.3,0.7s-0.3,0.6-0.6,0.7l0,0c0.3,0.1,0.5,0.3,0.6,0.7
			c0.1,0.5,0.1,0.7,0.2,0.8h-0.8c-0.1-0.1-0.1-0.4-0.2-0.7c-0.1-0.3-0.2-0.5-0.6-0.5h-0.3v1.2H122.5z M122.5,26.9h0.3
			c0.4,0,0.7-0.1,0.7-0.4c0-0.3-0.2-0.5-0.7-0.5c-0.2,0-0.3,0-0.4,0L122.5,26.9L122.5,26.9z"/>
	</g>
</g>
</svg>
