<svg width="119" height="36" viewBox="0 0 119 36" fill="none" xmlns="http://www.w3.org/2000/svg">
<path d="M35.7617 12.6235V31.9147C35.7617 33.905 36.8758 35.0139 38.9091 35.0139H41.569V9.52441H38.9091C36.8758 9.52441 35.7617 10.6191 35.7617 12.6235Z" fill="white"/>
<path d="M47.9051 11.5431C45.9415 13.1922 44.9667 15.5805 44.9806 18.6227V31.9005C44.9806 33.8908 46.0947 34.9996 48.128 34.9996H50.7879V18.6227C50.7879 17.5139 51.0942 16.6893 51.7209 16.1207C52.1526 15.7511 54.2834 15.4241 55.3418 15.4241H55.9824C57.9181 15.4241 58.9904 14.2868 58.9904 12.2113V9.52441H55.3418C53.2528 9.52441 49.5484 10.1499 47.9051 11.5431Z" fill="white"/>
<path d="M73.9762 20.7555C74.1712 20.4996 74.3662 20.2011 74.5472 19.8741L80.7305 9.52478H76.0513C74.6726 9.52478 73.5585 10.1929 72.7507 11.515L68.2665 19.0211C68.0158 19.4618 67.7512 19.5329 67.5841 19.5613C67.1802 19.6182 66.9713 19.6466 66.9713 19.6466V0H64.3114C62.2782 0 61.1641 1.09464 61.1641 3.09911V31.9151C61.1641 33.9054 62.2782 35.0142 64.3114 35.0142H66.9713V25.5747H69.7287C70.7732 25.5747 71.4695 26.0581 71.943 27.1101L74.5194 33.1377C74.8814 33.9907 75.7309 35.0142 77.792 35.0142H81.6357L77.2489 24.7644C76.4551 22.9305 75.3689 21.5942 73.9762 20.7555Z" fill="white"/>
<path d="M99.1419 12.5382V25.091C99.1419 26.1857 98.6823 27.0813 97.7214 27.8632C96.6073 28.8014 95.2425 29.2706 93.641 29.2706C92.0256 29.2706 90.6886 28.8156 89.5606 27.8632C88.6136 27.0813 88.1541 26.1714 88.1541 25.091V9.52441H85.5638C83.5862 9.52441 82.5 10.5906 82.5 12.5382V25.091C82.5 27.92 83.6698 30.351 85.9676 32.2986C88.0844 34.104 90.6608 35.0281 93.6271 35.0281C96.5934 35.0281 99.1837 34.1182 101.314 32.2986C103.612 30.3225 104.782 27.8916 104.782 25.091V9.52441H102.192C100.228 9.52441 99.1419 10.5906 99.1419 12.5382Z" fill="white"/>
<path d="M113.471 35.0142V0H110.811C108.778 0 107.664 1.09464 107.664 3.09911V35.0284H113.471V35.0142Z" fill="white"/>
<path d="M26.7245 24.608C26.6131 24.7644 26.4599 24.9208 26.3067 25.0914C23.5215 27.7214 20.9451 29.3136 16.9483 29.3136C10.6397 29.3136 6.07186 23.9825 6.07186 17.4005V17.301C6.07186 10.7189 10.6815 5.43054 16.9483 5.43054C20.7084 5.43054 23.5354 7.10804 26.1675 9.61007C26.2232 9.66694 26.2789 9.7238 26.3346 9.78067C27.3791 11.0743 28.7299 11.3302 30.2061 10.5483L32.5736 9.2831L32.3786 8.82819C31.7798 7.49188 30.9442 6.29773 29.8858 5.24573C29.8719 5.23152 29.8579 5.2173 29.8301 5.18887C29.7604 5.13201 29.6908 5.06093 29.6351 5.00406C26.5435 2.04712 22.9087 0 16.9901 0C7.01884 0 0 7.83306 0 17.4005V17.5C0 27.1527 7.1581 34.801 16.7533 34.801C22.9226 34.801 26.6827 32.498 30.1225 28.8444L30.0947 28.816C31.0834 27.7782 31.8633 26.6125 32.3925 25.3046L32.5736 24.8781L30.3175 23.7693C28.8831 23.0869 27.6297 23.3997 26.7245 24.608Z" fill="white"/>
<path d="M35.7891 3.27V6.11322H38.4629C40.4961 6.11322 41.6102 5.01858 41.6102 3.01411V0.170898H38.9364C36.9032 0.170898 35.7891 1.26554 35.7891 3.27Z" fill="white"/>
<path d="M116.744 4.71974C115.407 4.71974 114.488 3.78148 114.488 2.35987C114.488 0.952478 115.435 0 116.744 0C118.081 0 119 0.952478 119 2.35987C119 3.76726 118.067 4.71974 116.744 4.71974ZM116.744 0.270106C115.672 0.270106 114.823 1.02356 114.823 2.35987C114.823 3.68197 115.672 4.43542 116.744 4.43542C117.831 4.43542 118.68 3.68197 118.68 2.35987C118.68 1.02356 117.817 0.270106 116.744 0.270106ZM117.329 3.61089L116.647 2.58733H116.452V3.58245H115.881V0.98091H116.758C117.343 0.98091 117.705 1.26523 117.705 1.77701C117.705 2.14663 117.524 2.37409 117.218 2.50203L117.9 3.52559L117.329 3.61089ZM116.73 1.43582H116.466V2.17506H116.73C116.995 2.17506 117.162 2.04712 117.162 1.80544C117.148 1.57799 116.995 1.43582 116.73 1.43582Z" fill="white"/>
</svg>
