<svg xmlns="http://www.w3.org/2000/svg" width="127" height="23" viewBox="0 0 127 23">
    <g fill="#FFF" fill-rule="evenodd">
        <path d="M63.41 19.5c-4.148 0-7.51-3.554-7.51-7.941 0-4.365 3.362-7.919 7.51-7.919 3.448 0 5.98 2.062 6.94 5.067h-1.942c-.83-1.908-2.532-3.29-4.999-3.29-3.121 0-5.675 2.786-5.675 6.142 0 3.356 2.554 6.142 5.675 6.142 2.227 0 4.082-1.272 4.999-3.29h1.943c-1.026 3.093-3.69 5.089-6.942 5.089zM79.69 7.94h1.856v6.844c0 2.851-2.052 4.716-4.693 4.716-2.642 0-4.694-1.865-4.694-4.716V7.94h1.834v6.844c0 1.689 1.113 2.917 2.86 2.917 1.724 0 2.837-1.228 2.837-2.917V7.94zm28.729 7.787c-.786 2.413-2.707 3.773-5.304 3.773-3.23 0-5.763-2.589-5.763-5.9 0-3.27 2.532-5.946 5.654-5.946 2.903 0 5.697 2.413 5.675 6.428H99.23c.24 2.347 2.03 3.729 3.886 3.729 1.593 0 2.728-.768 3.34-2.084h1.964zm-1.79-3.312c-.458-1.843-1.986-3.072-3.623-3.072-1.55 0-3.187 1.141-3.668 3.072h7.291zm5.696 6.864h-1.834v-6.867c0-2.851 2.008-4.716 4.693-4.716 2.685 0 4.671 1.865 4.671 4.716v6.867h-1.833v-6.932c0-1.69-1.114-2.918-2.838-2.918-1.746 0-2.86 1.229-2.86 2.918v6.932zm14.814-.038c-2.587.303-4.376-1.235-4.376-4.073v-5.33h-1.51V8.085h.518a.995.995 0 0 0 .992-.997V5.7h1.81v2.383h2.523V9.84h-2.522v5.329c0 1.972 1.207 2.47 2.565 2.383v1.69zM88.852 7.919l.395.043v1.693l-.395-.026c-2.132-.195-3.488.844-3.488 2.986v6.664h-1.81v-6.621c0-3.376 2.39-5.085 5.298-4.739zm7.502 0l.395.043v1.693l-.395-.026c-2.132-.195-3.489.844-3.489 2.986v6.664h-1.808v-6.621c0-3.376 2.39-5.085 5.297-4.739zM43.786 16.393c-1.083 1.113-2.184 2.208-3.353 3.223-1.1.957-2.273 1.846-3.585 2.463a9.01 9.01 0 0 1-1.627.588 7.03 7.03 0 0 1-1.727.213h-.002c-1.887 0-3.73-.731-5.305-1.829-1.796-1.25-3.283-2.9-4.824-4.467a35.266 35.266 0 0 0-1.659-1.597c-.917-.818-1.902-1.568-2.987-2.137a6.196 6.196 0 0 0-3.663-.635c-.984.14-1.908.564-2.77 1.052 5.854-6.023 10.324-8.145 14.18-4.52.978.92 3.997 3.885 4.46 4.325 1.612 1.535 2.82 2.54 4.018 3.284 2.88 1.788 5.643 1.897 8.844.037zm-37.66 1.579L.12 11.825a.42.42 0 0 1-.005-.58c1.146-1.204 5.528-5.79 7.231-7.358.385-.355.778-.702 1.18-1.035C10.4 1.302 12.683-.001 15.227 0c2.35.027 4.552 1.403 6.324 2.873 1.039.86 1.977 1.86 2.918 2.855-4.973-1.76-10.567 2.918-18.29 12.175a.691.691 0 0 0-.051.069zm24.02-7.736c.272.107.55.2.832.275 1.637.437 3.324.193 4.804-.635.764-.428 1.46-.97 2.115-1.556.665-.596 2.773-2.772 3.543-3.57a.398.398 0 0 1 .574-.002l6.086 6.227a.738.738 0 0 0-.288.183c-5.168 5.3-8.472 6.172-12.09 3.925-1.093-.678-2.234-1.627-3.78-3.097-.205-.197-.952-.927-1.797-1.75z"/>
    </g>
</svg>
