<svg width="75" height="50" viewBox="0 0 75 50" fill="none" xmlns="http://www.w3.org/2000/svg">
<g clip-path="url(#clip0_273_1132)">
<path d="M74.6269 0H55.9702V27.1041H74.6269V0Z" fill="#61B3E4"/>
<path d="M55.9701 0H37.3134V27.1041H55.9701V0Z" fill="#B9BE10"/>
<path d="M37.3135 0H18.6567V27.1041H37.3135V0Z" fill="#D8262E"/>
<path d="M18.6567 0H0V27.1041H18.6567V0Z" fill="#EDA900"/>
<path d="M72.2948 29.4983C72.2948 30.1409 72.813 30.6591 73.4557 30.6591C74.0983 30.6591 74.6165 30.1409 74.6165 29.4983C74.6165 28.8556 74.0983 28.3374 73.4557 28.3374C72.813 28.3374 72.2948 28.8556 72.2948 29.4983ZM74.3367 29.4983C74.3367 30.0061 73.9428 30.4104 73.4557 30.4104C72.9685 30.4104 72.585 30.0061 72.585 29.4983C72.585 29.0008 72.9789 28.5862 73.4557 28.5862C73.9428 28.5862 74.3367 28.9904 74.3367 29.4983Z" fill="black"/>
<path d="M73.0825 30.0269H73.2691V29.5813H73.4246L73.694 30.0269H73.9117L73.6215 29.5709C73.777 29.5398 73.891 29.4672 73.891 29.2703C73.891 29.0526 73.7562 28.9697 73.4971 28.9697H73.0825V30.0269ZM73.2691 29.1252H73.4764C73.58 29.1252 73.7148 29.1459 73.7148 29.2703C73.7148 29.4154 73.6008 29.4258 73.466 29.4258H73.2794V29.1252H73.2691Z" fill="black"/>
<path d="M0 27.104V27.7984V27.8088V49.4921H4.45688V42.2367L6.64386 40.029L13.3292 49.4921H19.1542L9.79478 36.7122L18.6878 27.7984H22.357V49.4817H26.8553V27.7984H32.6285V49.4817H36.847V34.1003L45.6779 49.4921H50.2073V27.7984H55.9701V49.4817H65.3192C68.5945 49.4817 71.0199 48.1343 72.5954 45.4394C73.7562 43.439 74.3367 40.9929 74.3367 38.1115C74.3367 36.9713 74.2019 35.7794 73.9221 34.5252C73.6422 33.2711 73.1343 32.0999 72.3777 31.0219C71.4345 29.6849 70.2011 28.7727 68.6774 28.2752C67.8379 27.9954 66.791 27.8399 65.5473 27.8088H74.6269V27.104H0ZM68.6878 33.3333C69.3822 34.5149 69.7243 36.2147 69.7243 38.4121C69.7243 40.0082 69.4963 41.3868 69.0298 42.5476C68.1799 44.6517 66.6874 45.7089 64.5522 45.7089H60.3648V31.5609H64.5522C66.6148 31.5609 67.9934 32.1517 68.6878 33.3333ZM4.45688 36.7329V27.8088H12.8317L4.45688 36.7329ZM45.9784 42.9208L37.3756 27.8088H45.9784V42.9208Z" fill="black"/>
</g>
<defs>
<clipPath id="clip0_273_1132">
<rect width="74.6269" height="50" fill="white"/>
</clipPath>
</defs>
</svg>
