<svg width="124" height="30" viewBox="0 0 124 30" fill="none" xmlns="http://www.w3.org/2000/svg">
<path d="M14.9937 27.2212C13.1475 27.2212 11.3774 26.8025 9.81674 26.0602C9.64545 25.9841 9.47415 25.9841 9.30285 26.0602C8.67477 26.4028 8.08475 26.7834 7.55183 27.2212C7.26634 27.4496 7.3044 27.8683 7.60893 28.0586C9.79771 29.2958 12.3101 30 14.9937 30C17.6773 30 20.1897 29.2958 22.3784 28.0586C22.683 27.8874 22.721 27.4496 22.4355 27.2212C21.8836 26.7834 21.2936 26.4028 20.6845 26.0602C20.5323 25.9841 20.3419 25.9841 20.1706 26.0602C18.6099 26.8025 16.8399 27.2212 14.9937 27.2212Z" fill="#FFFCF8"/>
<path d="M26.0139 23.1291C22.9115 20.6168 18.9907 19.2274 14.9938 19.2274C11.1682 19.2274 7.53294 20.4455 4.48768 22.7485C4.48768 22.7485 3.84056 23.2624 3.34571 23.7001C3.15538 23.8714 3.11731 24.1569 3.28861 24.3663C3.66927 24.8231 4.10702 25.3179 4.52575 25.7366C4.69704 25.9079 4.98254 25.927 5.17287 25.7747C5.61062 25.4131 6.18161 24.9944 6.18161 24.9944C8.75105 23.072 11.7963 22.0443 15.0129 22.0443C18.3817 22.0443 21.6553 23.2053 24.2629 25.3179C24.2629 25.3179 24.5483 25.5463 24.8338 25.7747C25.0242 25.927 25.3097 25.927 25.481 25.7557C25.8997 25.337 26.3374 24.8611 26.7181 24.3853C26.8894 24.176 26.8513 23.8905 26.661 23.7192C26.3374 23.4146 26.0139 23.1291 26.0139 23.1291Z" fill="#FFFCF8"/>
<path d="M12.5391 0.194513C6.23925 1.20326 1.2336 6.18987 0.205819 12.4898C-0.289036 15.516 0.129688 18.409 1.2336 20.9404C1.38586 21.2829 1.80458 21.3781 2.07104 21.1497C2.623 20.6929 3.19398 20.2552 3.784 19.8555V19.8364C7.11476 17.6096 10.9594 16.4486 14.9944 16.4486C19.0293 16.4486 22.893 17.6286 26.2047 19.8364V19.8555C26.7948 20.2552 27.3848 20.6929 27.9177 21.1497C28.1842 21.3781 28.6219 21.2829 28.7551 20.9594C29.5545 19.1322 29.9923 17.1147 29.9923 15.0021C29.9923 5.92341 21.9033 -1.29005 12.5391 0.194513ZM14.9944 13.6698C10.6929 13.6698 6.5628 14.8308 2.96559 17.0576C2.85139 16.3915 2.79429 15.6873 2.79429 14.9831C2.79429 8.24542 8.27576 2.76395 15.0134 2.76395C21.751 2.76395 27.2325 8.24542 27.2325 14.9831C27.2325 15.6873 27.1754 16.3725 27.0612 17.0576C23.4259 14.8498 19.2958 13.6698 14.9944 13.6698Z" fill="#FFFCF8"/>
<path d="M70.3415 7.54126C68.2289 7.54126 66.5159 8.35967 65.4691 9.40648C64.5175 8.20741 63.09 7.54126 61.4722 7.54126C59.7592 7.54126 58.446 8.26451 57.5514 9.15906V8.39774C57.5514 8.13128 57.3421 7.92192 57.0756 7.92192H55.001C54.7346 7.92192 54.5252 8.13128 54.5252 8.39774V21.7017C54.5252 21.9682 54.7346 22.1776 55.001 22.1776H57.0756C57.3421 22.1776 57.5514 21.9682 57.5514 21.7017V12.033C58.2366 11.0433 59.3786 10.282 60.5396 10.282C62.1003 10.282 63.7561 11.1765 63.7561 14.2218V21.7017C63.7561 21.9682 63.9655 22.1776 64.232 22.1776H66.3065C66.573 22.1776 66.7824 21.9682 66.7824 21.7017V13.6508C66.7824 13.1179 66.7253 12.604 66.6491 12.1282C67.3343 11.0814 68.5524 10.282 69.7896 10.282C71.3503 10.282 73.0061 11.1765 73.0061 14.2218V21.7017C73.0061 21.9682 73.2155 22.1776 73.4819 22.1776H75.5565C75.823 22.1776 76.0324 21.9682 76.0324 21.7017V13.6508C76.0324 9.84424 73.3677 7.54126 70.3415 7.54126Z" fill="#FFFCF8"/>
<path d="M92.4769 7.92192H90.4023C90.1359 7.92192 89.9265 8.13128 89.9265 8.39774V9.76811C88.8417 8.43581 87.3 7.54126 85.3777 7.54126C81.3617 7.54126 78.1071 10.9101 78.1071 15.0402C78.1071 19.1894 81.3617 22.5392 85.3777 22.5392C87.3 22.5392 88.8417 21.6446 89.9265 20.3123V21.6827C89.9265 21.9492 90.1359 22.1585 90.4023 22.1585H92.4769C92.7434 22.1585 92.9528 21.9492 92.9528 21.6827V8.39774C92.9528 8.13128 92.7434 7.92192 92.4769 7.92192ZM85.6441 19.7604C83.265 19.7604 81.3237 17.6477 81.3237 15.0592C81.3237 12.4517 83.265 10.3581 85.6441 10.3581C88.0232 10.3581 89.9646 12.4708 89.9646 15.0592C89.9646 17.6477 88.0423 19.7604 85.6441 19.7604Z" fill="#FFFCF8"/>
<path d="M116.269 7.54126C112.272 7.65546 109.113 10.9481 109.113 14.9451C109.113 19.3797 112.215 22.5582 116.612 22.5582C119.257 22.5582 121.465 21.5495 122.931 19.6081C123.102 19.3797 123.045 19.0562 122.797 18.9229L121.199 17.9332C120.989 17.8 120.704 17.8571 120.551 18.0664C119.676 19.2655 118.363 20.0839 116.593 20.0839C114.232 20.0839 112.291 18.6945 111.872 16.1251H123.121C123.368 16.1251 123.578 15.9348 123.597 15.6873C123.616 15.497 123.616 15.2876 123.616 15.0973C123.654 10.891 120.704 7.54126 116.269 7.54126ZM111.968 13.7269C112.501 11.3478 114.499 10.0536 116.574 10.0536C118.515 10.0536 120.38 11.5953 120.742 13.7269H111.968Z" fill="#FFFCF8"/>
<path d="M44.9144 7.16055C40.651 7.16055 37.206 10.6245 37.206 14.8689C37.206 19.1322 40.67 22.5772 44.9144 22.5772C49.1777 22.5772 52.6227 19.1132 52.6227 14.8689C52.6227 10.6055 49.1777 7.16055 44.9144 7.16055ZM44.9144 19.8745C42.3259 19.8745 40.2323 17.6477 40.2323 14.8879C40.2323 12.1281 42.3259 9.90129 44.9144 9.90129C47.5028 9.90129 49.5964 12.1281 49.5964 14.8879C49.5964 17.6477 47.5028 19.8745 44.9144 19.8745Z" fill="#FFFCF8"/>
<path d="M107.913 19.5319C107.799 19.3226 107.533 19.2274 107.304 19.3226C106.505 19.6652 104.754 20.4265 102.451 20.4645C99.5007 20.5026 98.3017 19.7032 98.3017 19.7032L107.361 10.6436C107.514 10.4913 107.609 10.2819 107.609 10.0726V8.37865C107.609 8.11219 107.399 7.90283 107.133 7.90283H96.3984C96.1319 7.90283 95.9226 8.11219 95.9226 8.37865V10.0155C95.9226 10.2819 96.1319 10.4913 96.3984 10.4913L103.916 10.339L95.6371 18.6183C95.4848 18.7706 95.3896 18.98 95.3896 19.1893V21.2449C95.3896 21.4162 95.4848 21.5875 95.6561 21.6636C96.3984 22.0443 98.6823 23.034 102.07 23.034C105.249 23.034 107.552 22.0823 108.465 21.6446C108.713 21.5304 108.808 21.2259 108.675 20.9975L107.913 19.5319Z" fill="#FFFCF8"/>
</svg>
