<svg version="1.2" baseProfile="tiny-ps" xmlns="http://www.w3.org/2000/svg" viewBox="0 0 202 258" width="400" height="511">
	<title>Folder 1</title>
	<style>
		tspan { white-space:pre }
		.shp0 { fill: #c10c1a } 
		.shp1 { fill: #ffffff } 
		.shp2 { fill: #1c1c1a } 
	</style>
	<g >
		<path class="shp0" d="M200.86 144.49L99.01 169.74L0.04 144.49L0.04 257.23L99.01 232L200.86 256.99L200.86 144.49Z" />
		<path fill-rule="evenodd" class="shp1" d="M161.23 225.99L161.23 234.64C161.23 235.12 160.99 235.36 160.51 235.36L144.89 231.76C144.65 231.76 144.41 231.52 144.41 231.27L144.41 171.18C144.41 170.94 144.65 170.7 144.89 170.7C148.97 169.74 158.11 167.82 160.75 167.34C160.99 167.1 161.47 167.34 161.47 167.82L161.47 176.47C161.47 176.71 161.23 176.95 160.99 176.95L153.29 178.39C153.05 178.39 152.81 178.63 152.81 178.87L152.81 194.5C152.81 194.98 153.05 195.22 153.29 195.22L158.83 194.98C159.07 194.98 159.55 195.22 159.55 195.46L159.55 203.4C159.55 203.88 159.31 204.12 158.83 204.12L153.29 204.36C153.05 204.36 152.81 204.6 152.81 204.84L152.81 223.59C152.81 223.83 152.81 224.07 153.29 224.07L160.75 225.51C161.23 225.51 161.23 225.75 161.23 225.99ZM89.65 199.3C89.89 199.54 90.13 199.3 90.13 199.06L90.13 179.83C90.13 179.35 90.61 179.11 90.85 179.35L95.41 180.31C95.65 180.31 95.89 180.55 95.89 180.79L95.89 221.65C95.89 221.91 95.65 222.15 95.41 222.15L91.09 223.11C90.61 223.11 90.37 223.11 90.37 222.63L84.83 200.02C84.83 200.02 84.59 200.02 84.59 199.78L84.35 199.78C84.11 199.78 84.11 200.02 84.11 200.02L84.11 224.07C84.11 224.55 83.87 224.79 83.63 224.79L78.59 225.75C78.11 225.99 77.87 225.75 77.87 225.27C77.87 225.27 77.87 177.67 77.87 177.19C77.87 176.71 78.11 176.47 78.59 176.47L83.87 177.67C84.11 177.67 84.11 177.91 84.35 178.15L88.93 198.34L89.17 199.06C89.17 199.3 89.17 199.3 89.41 199.3L89.65 199.3ZM105.26 223.11C101.65 222.39 100.69 219.73 100.69 216.13L100.69 200.5C100.93 200.5 100.69 200.5 100.69 200.5L100.69 186.81C100.93 182.47 100.93 180.55 105.02 179.59C107.66 178.87 111.26 178.39 111.26 178.39L114.38 177.67C117.98 176.71 119.9 179.59 119.9 183.93L120.14 192.09C120.14 192.33 119.9 192.81 119.42 192.81L113.66 192.81C113.42 192.81 113.18 192.57 113.18 192.33L112.94 191.85L112.94 186.09C112.94 185.13 112.22 184.41 111.5 184.65L109.82 184.89C109.82 184.89 107.66 185.13 107.66 186.57C107.66 186.57 107.66 205.08 107.66 213.25C107.66 213.73 107.66 213.97 107.9 214.21C107.9 214.69 107.9 214.93 107.9 215.17C107.9 216.13 108.62 216.85 109.34 216.85L112.22 217.09C112.7 217.09 113.42 216.61 113.42 215.89L113.42 207.96L111.98 207.72C111.74 207.72 111.5 207.48 111.5 207.24L111.5 200.5C111.5 200.26 111.74 200.02 111.98 200.02L119.9 200.02C120.14 200.02 120.38 200.26 120.38 200.74L120.38 218.53C120.38 222.63 118.22 225.99 114.14 225.03L105.26 223.11ZM125.68 227.19L125.68 175.27C125.68 175.03 125.92 174.79 126.16 174.79L132.88 173.34C133.12 173.34 133.6 173.59 133.6 173.83L133.6 220.45C133.6 220.69 133.84 220.93 134.08 220.93L139.85 221.91C140.33 221.91 140.33 222.15 140.33 222.39L140.57 230.07C140.57 230.31 140.09 230.79 139.85 230.55L126.16 227.67C125.92 227.67 125.68 227.43 125.68 227.19ZM65.14 174.31C65.14 174.07 65.38 173.59 65.86 173.83L71.87 175.03C72.11 175.27 72.35 175.52 72.35 175.75C72.35 178.63 72.35 219.27 72.35 226.71C72.35 226.95 72.11 227.19 71.87 227.19L65.86 228.63C65.38 228.63 65.14 228.39 65.14 228.15C65.14 228.15 65.14 174.79 65.14 174.31ZM25.75 164.94C31.03 166.14 34.87 170.94 34.63 176.23L34.63 199.3C34.63 204.84 30.07 209.64 24.31 210.12L21.17 210.12C20.69 210.12 20.45 210.36 20.45 210.84L20.45 238C20.45 238.24 20.45 238.48 20.21 238.48L12.53 240.16C12.05 240.4 11.81 240.16 11.81 239.68L11.81 162.52C11.81 162.28 12.05 162.04 12.53 162.04L21.89 163.98L25.75 164.94ZM21.17 172.86C20.93 172.86 20.45 173.1 20.45 173.34C20.45 175.75 20.45 183.45 20.45 187.05C20.45 190.65 20.45 198.82 20.45 201.22C20.45 201.46 20.93 201.7 21.17 201.7L23.11 201.7C25.51 201.7 27.19 199.54 27.19 197.38C27.19 195.94 27.19 181.51 27.19 178.63C27.19 175.99 25.27 173.83 22.63 173.1L21.17 172.86Z" />
		<path fill-rule="evenodd" class="shp1" d="M59.38 192.81C59.38 195.94 58.9 198.58 55.54 200.02C59.14 201.7 59.62 204.6 59.86 207.96C59.86 213.01 59.62 223.11 59.62 223.11L59.62 229.35C59.62 229.59 59.62 229.83 59.38 230.07L53.36 231.27C52.88 231.27 52.64 231.03 52.64 230.79L52.4 226.95C52.4 221.41 52.4 216.13 52.4 210.6C52.4 209.16 52.4 208.2 52.4 207C52.16 205.56 51.2 204.36 49.76 204.36C48.56 204.36 47.6 204.36 47.36 204.36C46.88 204.36 46.64 204.6 46.64 204.84L46.64 232.24C46.64 232.48 46.64 232.72 46.16 232.96L39.68 234.16C39.44 234.4 38.96 234.16 38.96 233.69L38.96 168.54C38.96 168.3 39.44 168.06 39.68 168.06L53.6 171.18C57.7 172.14 59.38 174.31 59.38 178.63L59.38 192.81ZM52.16 181.75C52.16 180.07 50.96 178.63 49.52 178.39L47.36 177.67C47.12 177.67 46.64 177.91 46.64 178.39C46.64 180.31 46.64 185.61 46.64 187.77C46.64 190.17 46.64 195.46 46.64 197.14C46.64 197.38 46.88 197.62 47.36 197.62L49.76 197.62C50.96 197.62 51.68 196.9 51.92 195.94C52.16 195.46 52.16 194.74 52.16 194.02C52.4 189.93 52.4 185.61 52.16 181.75ZM189.34 219.49C189.34 219.97 189.34 227.43 189.34 227.67C189.34 238.48 187.16 241.86 176.84 239.44C169.39 237.76 165.31 236.8 165.31 225.03L165.31 211.32C165.31 210.36 166.03 210.36 168.91 210.36C171.8 210.36 173.48 210.36 173.48 211.32L173.48 224.07C173.48 228.87 174.44 229.35 176.84 229.59C178.76 230.07 179.96 229.59 180.2 226.71C180.2 225.03 180.2 219.97 180.2 218.53C180.2 206.04 165.55 200.26 165.55 182.23C165.55 181.51 165.55 177.19 165.55 176.71C165.55 166.38 168.67 164.7 176.84 163C185.48 161.32 189.1 161.08 189.1 171.9L189.1 187.77C189.1 188.49 187.64 188.49 185.24 188.49C182.36 188.49 180.68 188.49 180.68 187.77L180.68 175.99C180.68 173.1 179.48 171.9 177.56 172.38C175.4 172.62 174.44 173.34 174.44 175.99C174.2 177.67 174.44 181.03 174.44 182.47C174.44 195.46 189.34 200.02 189.34 219.49Z" />
		<path class="shp1" d="M9.17 112.77C16.37 151.47 63.46 175.51 114.14 165.9C165.07 156.52 200.14 117.34 192.94 78.4C185.73 39.46 138.65 15.66 87.95 25.03C37.27 34.65 1.96 73.83 9.17 112.77Z" />
		<path class="shp2" d="M84.59 53.64C85.31 59.89 82.67 64.93 78.35 64.93C74.03 65.17 69.7 60.13 68.98 54.12C68.26 47.86 71.14 43.06 75.47 42.82C79.79 42.82 83.63 47.62 84.59 53.64ZM149.21 47.38C149.69 52.68 147.05 56.76 143.45 56.52C139.61 56.28 136 51.48 135.76 45.94C135.28 40.66 138.17 36.57 141.77 37.05C145.61 37.29 148.73 42.1 149.21 47.38ZM176.36 63.49C175.4 63.01 174.68 63.73 175.16 64.45C177.08 68.55 177.08 74.55 170.83 74.55C163.87 74.55 154.75 65.89 142.49 65.89C133.84 65.89 124.24 71.91 123.28 85.36C117.5 76.47 107.18 70.47 94.93 70.47C72.35 70.47 56.26 97.87 37.51 97.87C29.35 97.87 26.95 90.66 28.63 85.12C28.87 84.16 27.91 83.44 27.19 84.16C20.69 89.22 18.53 97.87 18.53 106.29C18.53 129.12 41.84 148.59 72.83 148.59C102.37 148.59 127.6 130.8 128.56 104.83C134.56 113.49 144.65 118.54 154.99 118.54C171.56 118.54 187.16 106.77 187.16 86.8C187.16 77.68 182.36 67.09 176.36 63.49ZM70.18 1.24C57.94 0.76 47.36 12.3 46.4 26.71C46.4 27.43 46.4 28.15 46.4 28.87C46.4 29.61 46.88 29.85 47.36 30.09C47.36 30.09 47.36 30.09 47.6 30.09C48.08 30.09 48.32 29.61 48.56 29.13C51.2 17.58 62.02 9.4 74.27 9.9C76.91 9.9 79.79 10.38 82.43 11.58C83.15 11.82 83.87 11.58 84.35 10.86C85.07 9.9 84.83 8.92 84.35 8.2C80.51 3.88 75.47 1.48 70.18 1.24ZM155.23 18.54C154.99 17.82 154.75 17.1 154.75 16.62C152.57 10.38 148.49 5.08 143.21 2.44C139.61 0.76 135.76 0.28 132.16 1.48C128.56 2.68 125.68 5.56 123.76 9.64C123.28 10.38 123.52 11.34 124.24 12.06C124.96 12.54 125.92 12.54 126.64 12.06C128.08 10.86 129.52 10.14 131.44 9.4C139.85 6.52 148.97 10.62 153.29 19.26C153.29 19.51 153.77 19.75 154.01 19.75C154.25 19.75 154.25 19.75 154.49 19.75C154.99 19.51 155.23 19.02 155.23 18.54Z" />
	</g>
</svg>