<?xml version="1.0" encoding="utf-8"?>
<!-- Generator: Adobe Illustrator 25.2.0, SVG Export Plug-In . SVG Version: 6.00 Build 0)  -->
<svg version="1.1" id="Layer_1" xmlns="http://www.w3.org/2000/svg" xmlns:xlink="http://www.w3.org/1999/xlink" x="0px" y="0px"
	 viewBox="0 0 1200 388.5" style="enable-background:new 0 0 1200 388.5;" xml:space="preserve">
<style type="text/css">
	.st0{fill:#621BCE;}
</style>
<g id="Layer_2_1_">
	<g id="Layer_1-2">
		<path class="st0" d="M139.2,286.3c-10,11.6-29.1,19-50.7,18.9C36.3,305-0.1,268.4,0.1,214.5c0.1-49.8,43.4-90.3,93.2-90.1
			c53.9,0.2,92.8,36.8,92.6,90.7l-0.5,172.5l-46.4-0.1L139.2,286.3L139.2,286.3z M139.4,214.9c0.1-27.4-18.9-47.3-46.3-47.4
			c-26.5-0.1-46.5,19.8-46.6,47.1c-0.1,26.5,19.8,47.3,46.3,47.4C120.2,262.2,139.3,241.5,139.4,214.9L139.4,214.9z"/>
		<path class="st0" d="M221.1,215.2l0.3-89.3l46.4,0.1l-0.3,89.3c-0.1,26.5,19.8,47.3,46.3,47.4c27.4,0.1,46.5-20.6,46.6-47.1
			l0.3-89.3l46.4,0.1l-0.3,89.3c-0.2,53.9-46.7,90.3-94,90.1C259,305.7,220.9,269.1,221.1,215.2z"/>
		<path class="st0" d="M450.6,28.1c0-15.8,13.4-28.2,29.1-28.1c15.5-0.1,28.1,12.4,28.1,27.9c0,0.1,0,0.3,0,0.4
			c0,15.8-12.5,29-28.3,28.9C463.6,57,450.8,44.1,450.6,28.1z M455.3,126.6l46.4,0.1l-0.5,178.5l-46.4-0.1L455.3,126.6z"/>
		<path class="st0" d="M548.8,216.1c0.1-49.8,41.7-90.3,90.7-90.1c17.4,0.1,34,4.2,48.9,15.1l0.4-140.2L735.2,1l-0.6,215.7
			c-0.1,49.8-43.4,90.3-93.2,90.1C587.5,306.6,548.7,270,548.8,216.1z M688.2,216.5c0.1-27.4-18.9-47.3-46.3-47.4
			c-26.5-0.1-46.5,19.8-46.6,47.1c-0.1,26.5,19.8,47.3,46.3,47.4C668.9,263.7,688.1,243.1,688.2,216.5z"/>
		<path class="st0" d="M780.9,216.8c0.1-49.8,41.7-90.3,90.7-90.1c17.4,0.1,34,4.2,48.9,15.1l0.4-140.2l46.4,0.1l-0.6,215.7
			c-0.1,49.8-43.4,90.3-93.2,90.1C819.6,307.3,780.8,270.7,780.9,216.8z M920.3,217.2c0.1-27.4-18.9-47.3-46.3-47.4
			c-26.5-0.1-46.5,19.8-46.6,47.1c-0.1,26.5,19.8,47.3,46.3,47.4C901.1,264.4,920.2,243.7,920.3,217.2z"/>
	</g>
</g>
<g>
	<path class="st0" d="M1010.4,248c11.8,0,19.1,6.4,19.1,16.5c0,5.2-2,9.2-5.9,12c5.9,2.3,9.4,7.2,9.4,13.8c0,5.2-1.8,9.4-5.4,12.6
		c-3.6,3.1-8.4,4.7-14.5,4.7h-20.3V248H1010.4z M1002.3,256.9V273h8.3c5.5,0,9.1-3.1,9.1-7.9c0-5.4-3.5-8.2-9.4-8.2H1002.3z
		 M1002.3,281.5v17h10.8c6.2,0,10-3.1,10-8.6c0-5.4-3.8-8.4-10-8.4H1002.3z"/>
	<path class="st0" d="M1082.1,248v8.9h-23.9v15.6h20.8v8.8h-20.8v17.3h23.9v8.9h-33.4V248H1082.1z"/>
	<path class="st0" d="M1143.4,248v8.9h-20.3v50.6h-9.5v-50.6h-20.2V248H1143.4z"/>
	<path class="st0" d="M1176.3,248l23.5,59.5h-10.5l-5.7-14.5h-25.1l-5.6,14.5h-10.5l23.5-59.5H1176.3z M1171.1,259.9l-1.1,3.2
		l-8.2,21.3h18.9l-8.4-21.3L1171.1,259.9z"/>
</g>
</svg>
