<?xml version="1.0" encoding="UTF-8"?>
<svg width="84px" height="48px" viewBox="0 0 84 48" version="1.1" xmlns="http://www.w3.org/2000/svg" xmlns:xlink="http://www.w3.org/1999/xlink">
    <title>logo_TCL</title>
    <g id="顶部导航/底部导航/订阅" stroke="none" stroke-width="1" fill="none" fill-rule="evenodd">
        <g id="835" transform="translate(-16.000000, -106.000000)">
            <g id="组件/web/head" transform="translate(0.000000, 98.000000)">
                <g id="编组-5" transform="translate(16.000000, 8.000000)">
                    <rect id="矩形" opacity="0" x="0" y="0" width="84" height="48"></rect>
                    <g id="编组-8" transform="translate(8.000000, 13.000000)" fill="#E64C3D">
                        <polygon id="Fill-1" points="0 1.0956602 0 6.85839335 7.71147227 6.85839335 7.71147227 21.1365097 14.6114664 21.1365097 14.6114664 6.85839335 22.3107908 6.85839335 22.3107908 1.0956602"></polygon>
                        <path d="M35.824332,17.0069067 C34.222027,17.0069067 33.020602,16.5347368 31.996536,15.5502124 C31.0052692,14.5958264 30.280041,13.1152724 30.280041,11.1236196 L30.280041,10.8172114 C30.280041,8.82932595 31.0052692,7.33872576 31.996536,6.38308403 C33.020602,5.39730379 34.2317453,4.93894737 35.8279764,4.93894737 C39.5853147,4.93894737 40.3882894,7.24705448 40.6312469,8.76277008 L46.7477029,8.76277008 C46.6019284,5.72129271 45.1939895,3.57392428 43.211456,2.13857802 C41.2422851,0.724579871 38.9390477,-2.84217094e-14 35.8947897,-2.84217094e-14 C32.150814,-2.84217094e-14 29.4758515,0.86145891 27.2965224,2.77776547 C25.0916827,4.73048938 23.9157683,7.81466297 23.9157683,10.8913019 L23.9157683,11.0507849 C23.9157683,14.4124838 24.9398343,16.945374 27.1969098,19.0613481 C29.3118552,21.0429548 32.391342,21.9496214 35.8133989,21.9446191 C38.8540125,21.9446191 41.4597321,21.2036934 43.2612623,19.7984857 C45.2486549,18.25012 46.6104319,16.0688458 46.7719987,13.1968975 L40.6689053,13.1968975 C40.4988351,14.4074608 39.7675329,17.0069067 35.824332,17.0069067" id="Fill-2"></path>
                        <polygon id="Fill-5" points="57.1061976 15.6437673 57.1061976 1.10068329 50.4613089 1.10068329 50.4613089 21.1352539 67.987051 21.1352539 67.987051 15.6437673"></polygon>
                    </g>
                </g>
            </g>
        </g>
    </g>
</svg>